<?xml version="1.0" encoding="UTF-8"?>
<svg width="381px" height="335px" viewBox="0 0 381 335" version="1.1" xmlns="http://www.w3.org/2000/svg" xmlns:xlink="http://www.w3.org/1999/xlink">
    <!-- Generator: Sketch 61 (89581) - https://sketch.com -->
    <title>Connection States</title>
    <desc>Created with Sketch.</desc>
    <defs>
        <linearGradient x1="50%" y1="0.243660212%" x2="50%" y2="100%" id="linearGradient-1">
            <stop stop-color="#F4F4F4" offset="0.0812861272%"></stop>
            <stop stop-color="#D4D4D4" offset="100%"></stop>
        </linearGradient>
        <path d="M0,0 L341,0 L341,17.9904421 C341,20.2048598 339.206186,22 336.992882,22 L4.00711802,22 C1.79404785,22 0,20.1996477 0,17.9904421 L0,0 Z" id="path-2"></path>
        <filter x="-0.1%" y="-2.3%" width="100.3%" height="104.5%" filterUnits="objectBoundingBox" id="filter-3">
            <feOffset dx="0" dy="1" in="SourceAlpha" result="shadowOffsetInner1"></feOffset>
            <feComposite in="shadowOffsetInner1" in2="SourceAlpha" operator="arithmetic" k2="-1" k3="1" result="shadowInnerInner1"></feComposite>
            <feColorMatrix values="0 0 0 0 0   0 0 0 0 0   0 0 0 0 0  0 0 0 0.05 0" type="matrix" in="shadowInnerInner1"></feColorMatrix>
        </filter>
        <path d="M0,0 L341,0 L341,17.9904421 C341,20.2048598 339.206186,22 336.992882,22 L4.00711802,22 C1.79404785,22 0,20.1996477 0,17.9904421 L0,0 Z" id="path-4"></path>
        <filter x="-0.1%" y="-2.3%" width="100.3%" height="104.5%" filterUnits="objectBoundingBox" id="filter-5">
            <feOffset dx="0" dy="1" in="SourceAlpha" result="shadowOffsetInner1"></feOffset>
            <feComposite in="shadowOffsetInner1" in2="SourceAlpha" operator="arithmetic" k2="-1" k3="1" result="shadowInnerInner1"></feComposite>
            <feColorMatrix values="0 0 0 0 0   0 0 0 0 0   0 0 0 0 0  0 0 0 0.05 0" type="matrix" in="shadowInnerInner1"></feColorMatrix>
        </filter>
        <path d="M0,0 L341,0 L341,17.9904421 C341,20.2048598 339.206186,22 336.992882,22 L4.00711802,22 C1.79404785,22 0,20.1996477 0,17.9904421 L0,0 Z" id="path-6"></path>
        <filter x="-0.1%" y="-2.3%" width="100.3%" height="104.5%" filterUnits="objectBoundingBox" id="filter-7">
            <feOffset dx="0" dy="1" in="SourceAlpha" result="shadowOffsetInner1"></feOffset>
            <feComposite in="shadowOffsetInner1" in2="SourceAlpha" operator="arithmetic" k2="-1" k3="1" result="shadowInnerInner1"></feComposite>
            <feColorMatrix values="0 0 0 0 0   0 0 0 0 0   0 0 0 0 0  0 0 0 0.05 0" type="matrix" in="shadowInnerInner1"></feColorMatrix>
        </filter>
        <path d="M0,0 L341,0 L341,17.9904421 C341,20.2048598 339.206186,22 336.992882,22 L4.00711802,22 C1.79404785,22 0,20.1996477 0,17.9904421 L0,0 Z" id="path-8"></path>
        <filter x="-0.1%" y="-2.3%" width="100.3%" height="104.5%" filterUnits="objectBoundingBox" id="filter-9">
            <feOffset dx="0" dy="1" in="SourceAlpha" result="shadowOffsetInner1"></feOffset>
            <feComposite in="shadowOffsetInner1" in2="SourceAlpha" operator="arithmetic" k2="-1" k3="1" result="shadowInnerInner1"></feComposite>
            <feColorMatrix values="0 0 0 0 0   0 0 0 0 0   0 0 0 0 0  0 0 0 0.05 0" type="matrix" in="shadowInnerInner1"></feColorMatrix>
        </filter>
        <path d="M0,0 L341,0 L341,17.9904421 C341,20.2048598 339.206186,22 336.992882,22 L4.00711802,22 C1.79404785,22 0,20.1996477 0,17.9904421 L0,0 Z" id="path-10"></path>
        <filter x="-0.1%" y="-2.3%" width="100.3%" height="104.5%" filterUnits="objectBoundingBox" id="filter-11">
            <feOffset dx="0" dy="1" in="SourceAlpha" result="shadowOffsetInner1"></feOffset>
            <feComposite in="shadowOffsetInner1" in2="SourceAlpha" operator="arithmetic" k2="-1" k3="1" result="shadowInnerInner1"></feComposite>
            <feColorMatrix values="0 0 0 0 0   0 0 0 0 0   0 0 0 0 0  0 0 0 0.05 0" type="matrix" in="shadowInnerInner1"></feColorMatrix>
        </filter>
    </defs>
    <g id="Extra" stroke="none" stroke-width="1" fill="none" fill-rule="evenodd">
        <g id="Status-Bar-States-(Light)" transform="translate(-30.000000, -281.000000)">
            <g id="Connection-States" transform="translate(30.000000, 281.000000)">
                <path d="M4,0.5 C2.06700338,0.5 0.5,2.06700338 0.5,4 L0.5,331 C0.5,332.932997 2.06700338,334.5 4,334.5 L377,334.5 C378.932997,334.5 380.5,332.932997 380.5,331 L380.5,4 C380.5,2.06700338 378.932997,0.5 377,0.5 L4,0.5 Z" id="Rectangle" stroke="#3A465D" fill-opacity="0.05" fill="#000000"></path>
                <g id="Wallet-Unlocked" transform="translate(20.000000, 164.000000)">
                    <g id="Status-Bar/Light" transform="translate(0.000000, 20.000000)">
                        <g id="bg">
                            <use fill="url(#linearGradient-1)" fill-rule="evenodd" xlink:href="#path-2"></use>
                            <use fill="black" fill-opacity="1" filter="url(#filter-3)" xlink:href="#path-2"></use>
                        </g>
                        <g id="Status-Icons" stroke-width="1" fill-rule="evenodd" transform="translate(221.000000, 3.000000)">
                            <g id="Icons/Status-Bar/Lock/ic_locked_light" transform="translate(96.000000, 0.000000)" fill="#3A465D" fill-rule="nonzero">
                                <path d="M12.5035645,7.74050715 L11.8429466,7.74050715 L11.8429466,5.7170152 C11.8429466,4.70804874 11.4260099,3.78286502 10.7390365,3.10744119 C10.0537913,2.43281151 9.0764744,1.9976178 7.99978397,1.99999051 C6.92222942,1.9976178 5.94491251,2.43281151 5.26053143,3.10744119 C4.57312595,3.78286502 4.15618924,4.70804874 4.15618924,5.7170152 L4.15618924,7.74050715 L3.49470728,7.74050715 C3.22294232,7.74050715 3,7.94380933 3,8.19515752 L3,13.5441489 C3,13.7970854 3.22294232,13.9999905 3.49470728,13.9999905 L12.5039965,13.9999905 C12.7783539,13.9999905 13,13.7966883 13,13.5441489 L13,8.19515752 C13,7.94380933 12.7779218,7.74050715 12.5035645,7.74050715 Z M8,12.236674 C7.26666667,12.236674 6.66666667,11.636674 6.66666667,10.9033407 C6.66666667,10.1700073 7.26666667,9.57000732 8,9.57000732 C8.73333333,9.57000732 9.33333333,10.1700073 9.33333333,10.9033407 C9.33333333,11.636674 8.73333333,12.236674 8,12.236674 L8,12.236674 Z M5.98034133,5.7170152 C5.98034133,5.13530097 6.22186217,4.61870697 6.59386477,4.25339837 C6.96845971,3.88729563 7.45798229,3.67644904 7.99978397,3.67644904 C8.54072154,3.67644904 9.03024411,3.88729563 9.40397494,4.25339837 C9.77770577,4.61870697 10.0174984,5.13530097 10.0174984,5.7170152 L10.0174984,7.74050715 L5.98034133,7.74050715 L5.98034133,5.7170152 Z" id="Shape"></path>
                            </g>
                            <g id="Icons/Status-Bar/Connection/ic_connection_average_light" transform="translate(72.000000, 0.000000)" fill="#3A465D">
                                <g id="Shape" transform="translate(0.000000, 2.000000)">
                                    <path d="M15.9637895,3.50618519 C15.9576491,3.49666667 15.9506667,3.48774074 15.9429123,3.47955556 C13.8204912,1.23925926 10.9986316,0.00544444444 7.99715789,0.00544444444 C4.99585965,0.00544444444 2.17424561,1.239 0.0519298246,3.47907407 C0.0189473684,3.51362963 2.84217094e-14,3.56092593 2.84217094e-14,3.61062963 C2.84217094e-14,3.65974074 0.0184561404,3.70685185 0.0514035088,3.74159259 L1.21326316,4.96803704 C1.24617544,5.00277778 1.29077193,5.02225926 1.33729825,5.02225926 C1.38382456,5.02225926 1.42845614,5.00274074 1.46133333,4.96803704 C3.20996491,3.12214815 5.53108772,2.10562963 7.99715789,2.10562963 C10.463193,2.10562963 12.7843158,3.12218519 14.5329825,4.968 C14.5658947,5.00274074 14.6104912,5.02225926 14.6569825,5.02225926 C14.7035088,5.02225926 14.7481754,5.0027037 14.7810175,4.968 L15.9428772,3.74155556 C15.9757895,3.70681481 15.994281,3.65974074 15.994281,3.61059259 C15.994281,3.57337037 15.9836491,3.537 15.9637895,3.50618519 Z" fill-opacity="0.3" fill-rule="nonzero"></path>
                                    <path d="M7.99715789,3.24885185 C5.81975439,3.24885185 3.77045614,4.1462963 2.22670175,5.77585185 C2.15821053,5.84818519 2.15821053,5.96544444 2.22673684,6.03774074 L3.38498246,7.2602963 C3.41789474,7.29503704 3.46249123,7.31455556 3.50901754,7.31455556 C3.55554386,7.31455556 3.60017544,7.29503704 3.63305263,7.2602963 C4.80066667,6.02781481 6.35052632,5.349 7.99715789,5.349 C9.64385965,5.349 11.1937193,6.02781481 12.3612281,7.2602963 C12.3941404,7.29503704 12.4387719,7.31455556 12.4852982,7.31455556 C12.5318246,7.31455556 12.5764561,7.29503704 12.6093333,7.2602963 L13.767614,6.03774074 C13.8005263,6.003 13.8190175,5.95592593 13.8190175,5.90677778 C13.8190175,5.85762963 13.8005965,5.81055556 13.767614,5.77581481 C12.2238596,4.14633333 10.1745614,3.24885185 7.99715789,3.24885185 Z" fill-opacity="0.3" fill-rule="nonzero"></path>
                                    <path d="M7.99715789,6.4922963 C6.63922807,6.4922963 5.36115789,7.05192593 4.39842105,8.06818519 C4.36547368,8.10292593 4.34701754,8.15 4.34701754,8.19918519 C4.34701754,8.2482963 4.3654386,8.29540741 4.39842105,8.33011111 L5.55666667,9.5527037 C5.58957895,9.58744444 5.63417544,9.60696296 5.68070175,9.60696296 C5.72722807,9.60696296 5.77185965,9.58744444 5.80473684,9.5527037 C6.39136842,8.93348148 7.16996491,8.59248148 7.99715789,8.59248148 C8.82435088,8.59248148 9.60301754,8.93355556 10.189614,9.5527037 C10.2225263,9.58744444 10.2671228,9.60696296 10.313614,9.60696296 C10.3601053,9.60696296 10.4047719,9.58744444 10.4376491,9.5527037 L11.5958947,8.33011111 C11.664386,8.25777778 11.664386,8.14051852 11.5958947,8.06825926 C10.633193,7.05192593 9.35512281,6.4922963 7.99715789,6.4922963 Z" fill-rule="nonzero"></path>
                                    <path d="M7.99715789,9.929 C7.52273684,9.929 7.07684211,10.123963 6.74157895,10.477963 C6.67308772,10.5502963 6.67308772,10.6675185 6.74161404,10.7398148 L7.87312281,11.9342593 C7.90603509,11.969 7.95063158,11.9885185 7.99715789,11.9885185 C8.04368421,11.9885185 8.08835088,11.969 8.12119298,11.9342593 L9.25270175,10.7398148 C9.32119298,10.6674815 9.32119298,10.5502593 9.25270175,10.4779259 C8.91740351,10.123963 8.47150877,9.929 7.99715789,9.929 Z" fill-rule="nonzero"></path>
                                </g>
                            </g>
                            <g id="Icons/Status-Bar/Staking/ic_staking_yes_light" transform="translate(48.000000, 0.000000)" fill="#3A465D">
                                <g id="Shape" transform="translate(1.000000, 2.000000)">
                                    <path d="M13.643657,2.83243956 L7.24325566,0.0633406593 C7.08830421,-0.00421978022 6.91119741,-0.00421978022 6.75543042,0.0633406593 L0.355346278,2.83243956 C0.146433657,2.92268132 0.00847249191,3.12131868 0.000724919094,3.34334066 C-0.00675080906,3.56492308 0.115533981,3.77195604 0.317559871,3.87621978 L6.7175534,7.18756044 C6.8058123,7.23349451 6.90254369,7.25595604 6.99954693,7.25595604 C7.09704854,7.25595604 7.19364401,7.23349451 7.28203883,7.18756044 L13.6823495,3.87621978 C13.8841942,3.77195604 14.0066149,3.56492308 13.9992751,3.34334066 C13.9905307,3.12131868 13.8528867,2.92268132 13.643657,2.83243956 Z" fill-rule="nonzero"></path>
                                    <path d="M13.1177282,5.31010989 L6.99918447,8.4767033 L0.88163754,5.31010989 C0.588770227,5.15850549 0.22612945,5.26606593 0.0709061489,5.54967033 C-0.0854045307,5.83314286 0.0254627832,6.18487912 0.317514563,6.33608791 L6.71750809,9.64835165 C6.80576699,9.69397802 6.90249838,9.7167033 6.99950162,9.7167033 C7.09700324,9.7167033 7.19359871,9.69428571 7.28199353,9.64835165 L13.6823042,6.33608791 C13.9736764,6.18487912 14.0844078,5.83314286 13.9290032,5.54967033 C13.7726019,5.26602198 13.4096893,5.15846154 13.1177282,5.31010989 Z" fill-rule="nonzero"></path>
                                    <path d="M13.1177282,7.58136264 L6.99918447,10.7469011 L0.88163754,7.58136264 C0.588770227,7.42962637 0.22612945,7.53731868 0.0709061489,7.82052747 C-0.0854045307,8.104 0.0254627832,8.45608791 0.317514563,8.60707692 L6.71750809,11.9182857 C6.80576699,11.9642198 6.90249838,11.9869451 6.99950162,11.9869451 C7.09700324,11.9869451 7.19359871,11.9645275 7.28199353,11.9182857 L13.6823042,8.60707692 C13.9736764,8.45608791 14.0844078,8.10404396 13.9290032,7.82052747 C13.7726019,7.53731868 13.4101877,7.42958242 13.1177282,7.58136264 Z" fill-rule="nonzero"></path>
                                </g>
                            </g>
                            <g id="Icons/Status-Bar/Network/ic_syncing_uptodate" transform="translate(24.000000, 0.000000)" fill="#2AC940">
                                <g id="Shape" transform="translate(0.000000, 2.000000)">
                                    <path d="M12.9,4.69333333 C12.4466667,2.39333333 10.4266667,0.666666667 8,0.666666667 C6.07333333,0.666666667 4.4,1.76 3.56666667,3.36 C1.56,3.57333333 0,5.27333333 0,7.33333333 C0,9.54 1.79333333,11.3333333 4,11.3333333 L12.6666667,11.3333333 C14.5066667,11.3333333 16,9.84 16,8 C16,6.24 14.6333333,4.81333333 12.9,4.69333333 L12.9,4.69333333 Z M6.66666667,9.33333333 L4.33333333,7 L5.27333333,6.06 L6.66666667,7.44666667 L10.12,4 L11.06,4.94 L6.66666667,9.33333333 L6.66666667,9.33333333 Z"></path>
                                </g>
                            </g>
                            <g id="Icons/Status-Bar/Beacon/ic_beacon_online_light" fill="#3A465D">
                                <g id="Shape" transform="translate(1.000000, 2.000000)">
                                    <path d="M7,5.33333333 C6.26666667,5.33333333 5.66666667,5.93333333 5.66666667,6.66666667 C5.66666667,7.4 6.26666667,8 7,8 C7.73333333,8 8.33333333,7.4 8.33333333,6.66666667 C8.33333333,5.93333333 7.73333333,5.33333333 7,5.33333333 L7,5.33333333 Z" id="Path"></path>
                                    <path d="M11,6.66666667 C11,4.46 9.20666667,2.66666667 7,2.66666667 C4.79333333,2.66666667 3,4.46 3,6.66666667 C3,8.14666667 3.80666667,9.43333333 5,10.1266667 L5.66666667,8.96666667 C4.87333333,8.5 4.33333333,7.65333333 4.33333333,6.66666667 C4.33333333,5.19333333 5.52666667,4 7,4 C8.47333333,4 9.66666667,5.19333333 9.66666667,6.66666667 C9.66666667,7.65333333 9.12666667,8.5 8.33333333,8.96666667 L9,10.1266667 C10.1933333,9.43333333 11,8.14666667 11,6.66666667 L11,6.66666667 Z" id="Path"></path>
                                    <path d="M7,0 C3.32,0 0.333333333,2.98666667 0.333333333,6.66666667 C0.333333333,9.13333333 1.67333333,11.28 3.66,12.4333333 L4.32666667,11.28 C2.74,10.3533333 1.66666667,8.64 1.66666667,6.66666667 C1.66666667,3.72 4.05333333,1.33333333 7,1.33333333 C9.94666667,1.33333333 12.3333333,3.72 12.3333333,6.66666667 C12.3333333,8.64 11.26,10.3533333 9.66666667,11.28 L10.3333333,12.4333333 C12.3266667,11.28 13.6666667,9.13333333 13.6666667,6.66666667 C13.6666667,2.98666667 10.68,1.18423789e-15 7,1.18423789e-15 L7,0 Z" id="Path"></path>
                                </g>
                            </g>
                        </g>
                        <text id="Client-Message:-Stak" font-family=".AppleSystemUIFont" font-size="10" font-weight="normal" fill="#171B24" fill-opacity="0.7">
                            <tspan x="8" y="15">Client Message: Stake Weight 3982689</tspan>
                        </text>
                    </g>
                    <text id="Average-Connection" font-family=".AppleSystemUIFont" font-size="13" font-weight="normal" fill="#3A465D">
                        <tspan x="0.5" y="13">Average Connection</tspan>
                    </text>
                </g>
                <g id="Wallet-Unlocked" transform="translate(20.000000, 221.000000)">
                    <g id="Status-Bar/Light" transform="translate(0.000000, 20.000000)">
                        <g id="bg">
                            <use fill="url(#linearGradient-1)" fill-rule="evenodd" xlink:href="#path-4"></use>
                            <use fill="black" fill-opacity="1" filter="url(#filter-5)" xlink:href="#path-4"></use>
                        </g>
                        <g id="Status-Icons" stroke-width="1" fill-rule="evenodd" transform="translate(221.000000, 3.000000)">
                            <g id="Icons/Status-Bar/Lock/ic_locked_light" transform="translate(96.000000, 0.000000)" fill="#3A465D" fill-rule="nonzero">
                                <path d="M12.5035645,7.74050715 L11.8429466,7.74050715 L11.8429466,5.7170152 C11.8429466,4.70804874 11.4260099,3.78286502 10.7390365,3.10744119 C10.0537913,2.43281151 9.0764744,1.9976178 7.99978397,1.99999051 C6.92222942,1.9976178 5.94491251,2.43281151 5.26053143,3.10744119 C4.57312595,3.78286502 4.15618924,4.70804874 4.15618924,5.7170152 L4.15618924,7.74050715 L3.49470728,7.74050715 C3.22294232,7.74050715 3,7.94380933 3,8.19515752 L3,13.5441489 C3,13.7970854 3.22294232,13.9999905 3.49470728,13.9999905 L12.5039965,13.9999905 C12.7783539,13.9999905 13,13.7966883 13,13.5441489 L13,8.19515752 C13,7.94380933 12.7779218,7.74050715 12.5035645,7.74050715 Z M8,12.236674 C7.26666667,12.236674 6.66666667,11.636674 6.66666667,10.9033407 C6.66666667,10.1700073 7.26666667,9.57000732 8,9.57000732 C8.73333333,9.57000732 9.33333333,10.1700073 9.33333333,10.9033407 C9.33333333,11.636674 8.73333333,12.236674 8,12.236674 L8,12.236674 Z M5.98034133,5.7170152 C5.98034133,5.13530097 6.22186217,4.61870697 6.59386477,4.25339837 C6.96845971,3.88729563 7.45798229,3.67644904 7.99978397,3.67644904 C8.54072154,3.67644904 9.03024411,3.88729563 9.40397494,4.25339837 C9.77770577,4.61870697 10.0174984,5.13530097 10.0174984,5.7170152 L10.0174984,7.74050715 L5.98034133,7.74050715 L5.98034133,5.7170152 Z" id="Shape"></path>
                            </g>
                            <g id="Icons/Status-Bar/Connection/ic_connection_poor_light" transform="translate(72.000000, 0.000000)" fill="#3A465D">
                                <g id="Shape" transform="translate(0.000000, 2.000000)">
                                    <path d="M15.9637895,3.50618519 C15.9576491,3.49666667 15.9506667,3.48774074 15.9429123,3.47955556 C13.8204912,1.23925926 10.9986316,0.00544444444 7.99715789,0.00544444444 C4.99585965,0.00544444444 2.17424561,1.239 0.0519298246,3.47907407 C0.0189473684,3.51362963 2.84217094e-14,3.56092593 2.84217094e-14,3.61062963 C2.84217094e-14,3.65974074 0.0184561404,3.70685185 0.0514035088,3.74159259 L1.21326316,4.96803704 C1.24617544,5.00277778 1.29077193,5.02225926 1.33729825,5.02225926 C1.38382456,5.02225926 1.42845614,5.00274074 1.46133333,4.96803704 C3.20996491,3.12214815 5.53108772,2.10562963 7.99715789,2.10562963 C10.463193,2.10562963 12.7843158,3.12218519 14.5329825,4.968 C14.5658947,5.00274074 14.6104912,5.02225926 14.6569825,5.02225926 C14.7035088,5.02225926 14.7481754,5.0027037 14.7810175,4.968 L15.9428772,3.74155556 C15.9757895,3.70681481 15.994281,3.65974074 15.994281,3.61059259 C15.994281,3.57337037 15.9836491,3.537 15.9637895,3.50618519 Z" fill-opacity="0.3" fill-rule="nonzero"></path>
                                    <path d="M7.99715789,3.24885185 C5.81975439,3.24885185 3.77045614,4.1462963 2.22670175,5.77585185 C2.15821053,5.84818519 2.15821053,5.96544444 2.22673684,6.03774074 L3.38498246,7.2602963 C3.41789474,7.29503704 3.46249123,7.31455556 3.50901754,7.31455556 C3.55554386,7.31455556 3.60017544,7.29503704 3.63305263,7.2602963 C4.80066667,6.02781481 6.35052632,5.349 7.99715789,5.349 C9.64385965,5.349 11.1937193,6.02781481 12.3612281,7.2602963 C12.3941404,7.29503704 12.4387719,7.31455556 12.4852982,7.31455556 C12.5318246,7.31455556 12.5764561,7.29503704 12.6093333,7.2602963 L13.767614,6.03774074 C13.8005263,6.003 13.8190175,5.95592593 13.8190175,5.90677778 C13.8190175,5.85762963 13.8005965,5.81055556 13.767614,5.77581481 C12.2238596,4.14633333 10.1745614,3.24885185 7.99715789,3.24885185 Z" fill-opacity="0.3" fill-rule="nonzero"></path>
                                    <path d="M7.99715789,6.4922963 C6.63922807,6.4922963 5.36115789,7.05192593 4.39842105,8.06818519 C4.36547368,8.10292593 4.34701754,8.15 4.34701754,8.19918519 C4.34701754,8.2482963 4.3654386,8.29540741 4.39842105,8.33011111 L5.55666667,9.5527037 C5.58957895,9.58744444 5.63417544,9.60696296 5.68070175,9.60696296 C5.72722807,9.60696296 5.77185965,9.58744444 5.80473684,9.5527037 C6.39136842,8.93348148 7.16996491,8.59248148 7.99715789,8.59248148 C8.82435088,8.59248148 9.60301754,8.93355556 10.189614,9.5527037 C10.2225263,9.58744444 10.2671228,9.60696296 10.313614,9.60696296 C10.3601053,9.60696296 10.4047719,9.58744444 10.4376491,9.5527037 L11.5958947,8.33011111 C11.664386,8.25777778 11.664386,8.14051852 11.5958947,8.06825926 C10.633193,7.05192593 9.35512281,6.4922963 7.99715789,6.4922963 Z" fill-opacity="0.3" fill-rule="nonzero"></path>
                                    <path d="M7.99715789,9.929 C7.52273684,9.929 7.07684211,10.123963 6.74157895,10.477963 C6.67308772,10.5502963 6.67308772,10.6675185 6.74161404,10.7398148 L7.87312281,11.9342593 C7.90603509,11.969 7.95063158,11.9885185 7.99715789,11.9885185 C8.04368421,11.9885185 8.08835088,11.969 8.12119298,11.9342593 L9.25270175,10.7398148 C9.32119298,10.6674815 9.32119298,10.5502593 9.25270175,10.4779259 C8.91740351,10.123963 8.47150877,9.929 7.99715789,9.929 Z" fill-rule="nonzero"></path>
                                </g>
                            </g>
                            <g id="Icons/Status-Bar/Staking/ic_staking_yes_light" transform="translate(48.000000, 0.000000)" fill="#3A465D">
                                <g id="Shape" transform="translate(1.000000, 2.000000)">
                                    <path d="M13.643657,2.83243956 L7.24325566,0.0633406593 C7.08830421,-0.00421978022 6.91119741,-0.00421978022 6.75543042,0.0633406593 L0.355346278,2.83243956 C0.146433657,2.92268132 0.00847249191,3.12131868 0.000724919094,3.34334066 C-0.00675080906,3.56492308 0.115533981,3.77195604 0.317559871,3.87621978 L6.7175534,7.18756044 C6.8058123,7.23349451 6.90254369,7.25595604 6.99954693,7.25595604 C7.09704854,7.25595604 7.19364401,7.23349451 7.28203883,7.18756044 L13.6823495,3.87621978 C13.8841942,3.77195604 14.0066149,3.56492308 13.9992751,3.34334066 C13.9905307,3.12131868 13.8528867,2.92268132 13.643657,2.83243956 Z" fill-rule="nonzero"></path>
                                    <path d="M13.1177282,5.31010989 L6.99918447,8.4767033 L0.88163754,5.31010989 C0.588770227,5.15850549 0.22612945,5.26606593 0.0709061489,5.54967033 C-0.0854045307,5.83314286 0.0254627832,6.18487912 0.317514563,6.33608791 L6.71750809,9.64835165 C6.80576699,9.69397802 6.90249838,9.7167033 6.99950162,9.7167033 C7.09700324,9.7167033 7.19359871,9.69428571 7.28199353,9.64835165 L13.6823042,6.33608791 C13.9736764,6.18487912 14.0844078,5.83314286 13.9290032,5.54967033 C13.7726019,5.26602198 13.4096893,5.15846154 13.1177282,5.31010989 Z" fill-rule="nonzero"></path>
                                    <path d="M13.1177282,7.58136264 L6.99918447,10.7469011 L0.88163754,7.58136264 C0.588770227,7.42962637 0.22612945,7.53731868 0.0709061489,7.82052747 C-0.0854045307,8.104 0.0254627832,8.45608791 0.317514563,8.60707692 L6.71750809,11.9182857 C6.80576699,11.9642198 6.90249838,11.9869451 6.99950162,11.9869451 C7.09700324,11.9869451 7.19359871,11.9645275 7.28199353,11.9182857 L13.6823042,8.60707692 C13.9736764,8.45608791 14.0844078,8.10404396 13.9290032,7.82052747 C13.7726019,7.53731868 13.4101877,7.42958242 13.1177282,7.58136264 Z" fill-rule="nonzero"></path>
                                </g>
                            </g>
                            <g id="Icons/Status-Bar/Network/ic_syncing_uptodate" transform="translate(24.000000, 0.000000)" fill="#2AC940">
                                <g id="Shape" transform="translate(0.000000, 2.000000)">
                                    <path d="M12.9,4.69333333 C12.4466667,2.39333333 10.4266667,0.666666667 8,0.666666667 C6.07333333,0.666666667 4.4,1.76 3.56666667,3.36 C1.56,3.57333333 0,5.27333333 0,7.33333333 C0,9.54 1.79333333,11.3333333 4,11.3333333 L12.6666667,11.3333333 C14.5066667,11.3333333 16,9.84 16,8 C16,6.24 14.6333333,4.81333333 12.9,4.69333333 L12.9,4.69333333 Z M6.66666667,9.33333333 L4.33333333,7 L5.27333333,6.06 L6.66666667,7.44666667 L10.12,4 L11.06,4.94 L6.66666667,9.33333333 L6.66666667,9.33333333 Z"></path>
                                </g>
                            </g>
                            <g id="Icons/Status-Bar/Beacon/ic_beacon_online_light" fill="#3A465D">
                                <g id="Shape" transform="translate(1.000000, 2.000000)">
                                    <path d="M7,5.33333333 C6.26666667,5.33333333 5.66666667,5.93333333 5.66666667,6.66666667 C5.66666667,7.4 6.26666667,8 7,8 C7.73333333,8 8.33333333,7.4 8.33333333,6.66666667 C8.33333333,5.93333333 7.73333333,5.33333333 7,5.33333333 L7,5.33333333 Z" id="Path"></path>
                                    <path d="M11,6.66666667 C11,4.46 9.20666667,2.66666667 7,2.66666667 C4.79333333,2.66666667 3,4.46 3,6.66666667 C3,8.14666667 3.80666667,9.43333333 5,10.1266667 L5.66666667,8.96666667 C4.87333333,8.5 4.33333333,7.65333333 4.33333333,6.66666667 C4.33333333,5.19333333 5.52666667,4 7,4 C8.47333333,4 9.66666667,5.19333333 9.66666667,6.66666667 C9.66666667,7.65333333 9.12666667,8.5 8.33333333,8.96666667 L9,10.1266667 C10.1933333,9.43333333 11,8.14666667 11,6.66666667 L11,6.66666667 Z" id="Path"></path>
                                    <path d="M7,0 C3.32,0 0.333333333,2.98666667 0.333333333,6.66666667 C0.333333333,9.13333333 1.67333333,11.28 3.66,12.4333333 L4.32666667,11.28 C2.74,10.3533333 1.66666667,8.64 1.66666667,6.66666667 C1.66666667,3.72 4.05333333,1.33333333 7,1.33333333 C9.94666667,1.33333333 12.3333333,3.72 12.3333333,6.66666667 C12.3333333,8.64 11.26,10.3533333 9.66666667,11.28 L10.3333333,12.4333333 C12.3266667,11.28 13.6666667,9.13333333 13.6666667,6.66666667 C13.6666667,2.98666667 10.68,1.18423789e-15 7,1.18423789e-15 L7,0 Z" id="Path"></path>
                                </g>
                            </g>
                        </g>
                        <text id="Client-Message:-Stak" font-family=".AppleSystemUIFont" font-size="10" font-weight="normal" fill="#171B24" fill-opacity="0.7">
                            <tspan x="8" y="15">Client Message: Stake Weight 3982689</tspan>
                        </text>
                    </g>
                    <text id="Poor-Connection" font-family=".AppleSystemUIFont" font-size="13" font-weight="normal" fill="#3A465D">
                        <tspan x="0.5" y="13">Poor Connection</tspan>
                    </text>
                </g>
                <g id="Wallet-Unlocked" transform="translate(20.000000, 278.000000)">
                    <g id="Status-Bar/Light" transform="translate(0.000000, 20.000000)">
                        <g id="bg">
                            <use fill="url(#linearGradient-1)" fill-rule="evenodd" xlink:href="#path-6"></use>
                            <use fill="black" fill-opacity="1" filter="url(#filter-7)" xlink:href="#path-6"></use>
                        </g>
                        <g id="Status-Icons" stroke-width="1" fill-rule="evenodd" transform="translate(221.000000, 3.000000)">
                            <g id="Icons/Status-Bar/Lock/ic_locked_light" transform="translate(96.000000, 0.000000)" fill="#3A465D" fill-rule="nonzero">
                                <path d="M12.5035645,7.74050715 L11.8429466,7.74050715 L11.8429466,5.7170152 C11.8429466,4.70804874 11.4260099,3.78286502 10.7390365,3.10744119 C10.0537913,2.43281151 9.0764744,1.9976178 7.99978397,1.99999051 C6.92222942,1.9976178 5.94491251,2.43281151 5.26053143,3.10744119 C4.57312595,3.78286502 4.15618924,4.70804874 4.15618924,5.7170152 L4.15618924,7.74050715 L3.49470728,7.74050715 C3.22294232,7.74050715 3,7.94380933 3,8.19515752 L3,13.5441489 C3,13.7970854 3.22294232,13.9999905 3.49470728,13.9999905 L12.5039965,13.9999905 C12.7783539,13.9999905 13,13.7966883 13,13.5441489 L13,8.19515752 C13,7.94380933 12.7779218,7.74050715 12.5035645,7.74050715 Z M8,12.236674 C7.26666667,12.236674 6.66666667,11.636674 6.66666667,10.9033407 C6.66666667,10.1700073 7.26666667,9.57000732 8,9.57000732 C8.73333333,9.57000732 9.33333333,10.1700073 9.33333333,10.9033407 C9.33333333,11.636674 8.73333333,12.236674 8,12.236674 L8,12.236674 Z M5.98034133,5.7170152 C5.98034133,5.13530097 6.22186217,4.61870697 6.59386477,4.25339837 C6.96845971,3.88729563 7.45798229,3.67644904 7.99978397,3.67644904 C8.54072154,3.67644904 9.03024411,3.88729563 9.40397494,4.25339837 C9.77770577,4.61870697 10.0174984,5.13530097 10.0174984,5.7170152 L10.0174984,7.74050715 L5.98034133,7.74050715 L5.98034133,5.7170152 Z" id="Shape"></path>
                            </g>
                            <g id="Icons/Status-Bar/Connection/ic_connection_na_light" transform="translate(72.000000, 0.000000)" fill="#3A465D" fill-opacity="0.3">
                                <g id="Shape" transform="translate(0.000000, 2.000000)">
                                    <path d="M15.9637895,3.50618519 C15.9576491,3.49666667 15.9506667,3.48774074 15.9429123,3.47955556 C13.8204912,1.23925926 10.9986316,0.00544444444 7.99715789,0.00544444444 C4.99585965,0.00544444444 2.17424561,1.239 0.0519298246,3.47907407 C0.0189473684,3.51362963 2.84217094e-14,3.56092593 2.84217094e-14,3.61062963 C2.84217094e-14,3.65974074 0.0184561404,3.70685185 0.0514035088,3.74159259 L1.21326316,4.96803704 C1.24617544,5.00277778 1.29077193,5.02225926 1.33729825,5.02225926 C1.38382456,5.02225926 1.42845614,5.00274074 1.46133333,4.96803704 C3.20996491,3.12214815 5.53108772,2.10562963 7.99715789,2.10562963 C10.463193,2.10562963 12.7843158,3.12218519 14.5329825,4.968 C14.5658947,5.00274074 14.6104912,5.02225926 14.6569825,5.02225926 C14.7035088,5.02225926 14.7481754,5.0027037 14.7810175,4.968 L15.9428772,3.74155556 C15.9757895,3.70681481 15.994281,3.65974074 15.994281,3.61059259 C15.994281,3.57337037 15.9836491,3.537 15.9637895,3.50618519 Z" fill-rule="nonzero"></path>
                                    <path d="M7.99715789,3.24885185 C5.81975439,3.24885185 3.77045614,4.1462963 2.22670175,5.77585185 C2.15821053,5.84818519 2.15821053,5.96544444 2.22673684,6.03774074 L3.38498246,7.2602963 C3.41789474,7.29503704 3.46249123,7.31455556 3.50901754,7.31455556 C3.55554386,7.31455556 3.60017544,7.29503704 3.63305263,7.2602963 C4.80066667,6.02781481 6.35052632,5.349 7.99715789,5.349 C9.64385965,5.349 11.1937193,6.02781481 12.3612281,7.2602963 C12.3941404,7.29503704 12.4387719,7.31455556 12.4852982,7.31455556 C12.5318246,7.31455556 12.5764561,7.29503704 12.6093333,7.2602963 L13.767614,6.03774074 C13.8005263,6.003 13.8190175,5.95592593 13.8190175,5.90677778 C13.8190175,5.85762963 13.8005965,5.81055556 13.767614,5.77581481 C12.2238596,4.14633333 10.1745614,3.24885185 7.99715789,3.24885185 Z" fill-rule="nonzero"></path>
                                    <path d="M7.99715789,6.4922963 C6.63922807,6.4922963 5.36115789,7.05192593 4.39842105,8.06818519 C4.36547368,8.10292593 4.34701754,8.15 4.34701754,8.19918519 C4.34701754,8.2482963 4.3654386,8.29540741 4.39842105,8.33011111 L5.55666667,9.5527037 C5.58957895,9.58744444 5.63417544,9.60696296 5.68070175,9.60696296 C5.72722807,9.60696296 5.77185965,9.58744444 5.80473684,9.5527037 C6.39136842,8.93348148 7.16996491,8.59248148 7.99715789,8.59248148 C8.82435088,8.59248148 9.60301754,8.93355556 10.189614,9.5527037 C10.2225263,9.58744444 10.2671228,9.60696296 10.313614,9.60696296 C10.3601053,9.60696296 10.4047719,9.58744444 10.4376491,9.5527037 L11.5958947,8.33011111 C11.664386,8.25777778 11.664386,8.14051852 11.5958947,8.06825926 C10.633193,7.05192593 9.35512281,6.4922963 7.99715789,6.4922963 Z" fill-rule="nonzero"></path>
                                    <path d="M7.99715789,9.929 C7.52273684,9.929 7.07684211,10.123963 6.74157895,10.477963 C6.67308772,10.5502963 6.67308772,10.6675185 6.74161404,10.7398148 L7.87312281,11.9342593 C7.90603509,11.969 7.95063158,11.9885185 7.99715789,11.9885185 C8.04368421,11.9885185 8.08835088,11.969 8.12119298,11.9342593 L9.25270175,10.7398148 C9.32119298,10.6674815 9.32119298,10.5502593 9.25270175,10.4779259 C8.91740351,10.123963 8.47150877,9.929 7.99715789,9.929 Z" fill-rule="nonzero"></path>
                                </g>
                            </g>
                            <g id="Icons/Status-Bar/Staking/ic_staking_yes_light" transform="translate(48.000000, 0.000000)" fill="#3A465D">
                                <g id="Shape" transform="translate(1.000000, 2.000000)">
                                    <path d="M13.643657,2.83243956 L7.24325566,0.0633406593 C7.08830421,-0.00421978022 6.91119741,-0.00421978022 6.75543042,0.0633406593 L0.355346278,2.83243956 C0.146433657,2.92268132 0.00847249191,3.12131868 0.000724919094,3.34334066 C-0.00675080906,3.56492308 0.115533981,3.77195604 0.317559871,3.87621978 L6.7175534,7.18756044 C6.8058123,7.23349451 6.90254369,7.25595604 6.99954693,7.25595604 C7.09704854,7.25595604 7.19364401,7.23349451 7.28203883,7.18756044 L13.6823495,3.87621978 C13.8841942,3.77195604 14.0066149,3.56492308 13.9992751,3.34334066 C13.9905307,3.12131868 13.8528867,2.92268132 13.643657,2.83243956 Z" fill-rule="nonzero"></path>
                                    <path d="M13.1177282,5.31010989 L6.99918447,8.4767033 L0.88163754,5.31010989 C0.588770227,5.15850549 0.22612945,5.26606593 0.0709061489,5.54967033 C-0.0854045307,5.83314286 0.0254627832,6.18487912 0.317514563,6.33608791 L6.71750809,9.64835165 C6.80576699,9.69397802 6.90249838,9.7167033 6.99950162,9.7167033 C7.09700324,9.7167033 7.19359871,9.69428571 7.28199353,9.64835165 L13.6823042,6.33608791 C13.9736764,6.18487912 14.0844078,5.83314286 13.9290032,5.54967033 C13.7726019,5.26602198 13.4096893,5.15846154 13.1177282,5.31010989 Z" fill-rule="nonzero"></path>
                                    <path d="M13.1177282,7.58136264 L6.99918447,10.7469011 L0.88163754,7.58136264 C0.588770227,7.42962637 0.22612945,7.53731868 0.0709061489,7.82052747 C-0.0854045307,8.104 0.0254627832,8.45608791 0.317514563,8.60707692 L6.71750809,11.9182857 C6.80576699,11.9642198 6.90249838,11.9869451 6.99950162,11.9869451 C7.09700324,11.9869451 7.19359871,11.9645275 7.28199353,11.9182857 L13.6823042,8.60707692 C13.9736764,8.45608791 14.0844078,8.10404396 13.9290032,7.82052747 C13.7726019,7.53731868 13.4101877,7.42958242 13.1177282,7.58136264 Z" fill-rule="nonzero"></path>
                                </g>
                            </g>
                            <g id="Icons/Status-Bar/Network/ic_syncing_uptodate" transform="translate(24.000000, 0.000000)" fill="#2AC940">
                                <g id="Shape" transform="translate(0.000000, 2.000000)">
                                    <path d="M12.9,4.69333333 C12.4466667,2.39333333 10.4266667,0.666666667 8,0.666666667 C6.07333333,0.666666667 4.4,1.76 3.56666667,3.36 C1.56,3.57333333 0,5.27333333 0,7.33333333 C0,9.54 1.79333333,11.3333333 4,11.3333333 L12.6666667,11.3333333 C14.5066667,11.3333333 16,9.84 16,8 C16,6.24 14.6333333,4.81333333 12.9,4.69333333 L12.9,4.69333333 Z M6.66666667,9.33333333 L4.33333333,7 L5.27333333,6.06 L6.66666667,7.44666667 L10.12,4 L11.06,4.94 L6.66666667,9.33333333 L6.66666667,9.33333333 Z"></path>
                                </g>
                            </g>
                            <g id="Icons/Status-Bar/Beacon/ic_beacon_online_light" fill="#3A465D">
                                <g id="Shape" transform="translate(1.000000, 2.000000)">
                                    <path d="M7,5.33333333 C6.26666667,5.33333333 5.66666667,5.93333333 5.66666667,6.66666667 C5.66666667,7.4 6.26666667,8 7,8 C7.73333333,8 8.33333333,7.4 8.33333333,6.66666667 C8.33333333,5.93333333 7.73333333,5.33333333 7,5.33333333 L7,5.33333333 Z" id="Path"></path>
                                    <path d="M11,6.66666667 C11,4.46 9.20666667,2.66666667 7,2.66666667 C4.79333333,2.66666667 3,4.46 3,6.66666667 C3,8.14666667 3.80666667,9.43333333 5,10.1266667 L5.66666667,8.96666667 C4.87333333,8.5 4.33333333,7.65333333 4.33333333,6.66666667 C4.33333333,5.19333333 5.52666667,4 7,4 C8.47333333,4 9.66666667,5.19333333 9.66666667,6.66666667 C9.66666667,7.65333333 9.12666667,8.5 8.33333333,8.96666667 L9,10.1266667 C10.1933333,9.43333333 11,8.14666667 11,6.66666667 L11,6.66666667 Z" id="Path"></path>
                                    <path d="M7,0 C3.32,0 0.333333333,2.98666667 0.333333333,6.66666667 C0.333333333,9.13333333 1.67333333,11.28 3.66,12.4333333 L4.32666667,11.28 C2.74,10.3533333 1.66666667,8.64 1.66666667,6.66666667 C1.66666667,3.72 4.05333333,1.33333333 7,1.33333333 C9.94666667,1.33333333 12.3333333,3.72 12.3333333,6.66666667 C12.3333333,8.64 11.26,10.3533333 9.66666667,11.28 L10.3333333,12.4333333 C12.3266667,11.28 13.6666667,9.13333333 13.6666667,6.66666667 C13.6666667,2.98666667 10.68,1.18423789e-15 7,1.18423789e-15 L7,0 Z" id="Path"></path>
                                </g>
                            </g>
                        </g>
                        <text id="Client-Message:-Stak" font-family=".AppleSystemUIFont" font-size="10" font-weight="normal" fill="#171B24" fill-opacity="0.7">
                            <tspan x="8" y="15">Client Message: Stake Weight 3982689</tspan>
                        </text>
                    </g>
                    <text id="No-Connection" font-family=".AppleSystemUIFont" font-size="13" font-weight="normal" fill="#3A465D">
                        <tspan x="0.5" y="13">No Connection</tspan>
                    </text>
                </g>
                <g id="Wallet-Unlocked-(Stacking)" transform="translate(20.000000, 107.000000)">
                    <g id="Status-Bar/Light" transform="translate(0.000000, 20.000000)">
                        <g id="bg">
                            <use fill="url(#linearGradient-1)" fill-rule="evenodd" xlink:href="#path-8"></use>
                            <use fill="black" fill-opacity="1" filter="url(#filter-9)" xlink:href="#path-8"></use>
                        </g>
                        <g id="Status-Icons" stroke-width="1" fill-rule="evenodd" transform="translate(221.000000, 3.000000)">
                            <g id="Icons/Status-Bar/Lock/ic_locked_light" transform="translate(96.000000, 0.000000)" fill="#3A465D" fill-rule="nonzero">
                                <path d="M12.5035645,7.74050715 L11.8429466,7.74050715 L11.8429466,5.7170152 C11.8429466,4.70804874 11.4260099,3.78286502 10.7390365,3.10744119 C10.0537913,2.43281151 9.0764744,1.9976178 7.99978397,1.99999051 C6.92222942,1.9976178 5.94491251,2.43281151 5.26053143,3.10744119 C4.57312595,3.78286502 4.15618924,4.70804874 4.15618924,5.7170152 L4.15618924,7.74050715 L3.49470728,7.74050715 C3.22294232,7.74050715 3,7.94380933 3,8.19515752 L3,13.5441489 C3,13.7970854 3.22294232,13.9999905 3.49470728,13.9999905 L12.5039965,13.9999905 C12.7783539,13.9999905 13,13.7966883 13,13.5441489 L13,8.19515752 C13,7.94380933 12.7779218,7.74050715 12.5035645,7.74050715 Z M8,12.236674 C7.26666667,12.236674 6.66666667,11.636674 6.66666667,10.9033407 C6.66666667,10.1700073 7.26666667,9.57000732 8,9.57000732 C8.73333333,9.57000732 9.33333333,10.1700073 9.33333333,10.9033407 C9.33333333,11.636674 8.73333333,12.236674 8,12.236674 L8,12.236674 Z M5.98034133,5.7170152 C5.98034133,5.13530097 6.22186217,4.61870697 6.59386477,4.25339837 C6.96845971,3.88729563 7.45798229,3.67644904 7.99978397,3.67644904 C8.54072154,3.67644904 9.03024411,3.88729563 9.40397494,4.25339837 C9.77770577,4.61870697 10.0174984,5.13530097 10.0174984,5.7170152 L10.0174984,7.74050715 L5.98034133,7.74050715 L5.98034133,5.7170152 Z" id="Shape"></path>
                            </g>
                            <g id="Icons/Status-Bar/Connection/ic_connection_normal_light" transform="translate(72.000000, 0.000000)" fill="#3A465D">
                                <g id="Shape" transform="translate(0.000000, 2.000000)">
                                    <path d="M15.9637895,3.50618519 C15.9576491,3.49666667 15.9506667,3.48774074 15.9429123,3.47955556 C13.8204912,1.23925926 10.9986316,0.00544444444 7.99715789,0.00544444444 C4.99585965,0.00544444444 2.17424561,1.239 0.0519298246,3.47907407 C0.0189473684,3.51362963 2.84217094e-14,3.56092593 2.84217094e-14,3.61062963 C2.84217094e-14,3.65974074 0.0184561404,3.70685185 0.0514035088,3.74159259 L1.21326316,4.96803704 C1.24617544,5.00277778 1.29077193,5.02225926 1.33729825,5.02225926 C1.38382456,5.02225926 1.42845614,5.00274074 1.46133333,4.96803704 C3.20996491,3.12214815 5.53108772,2.10562963 7.99715789,2.10562963 C10.463193,2.10562963 12.7843158,3.12218519 14.5329825,4.968 C14.5658947,5.00274074 14.6104912,5.02225926 14.6569825,5.02225926 C14.7035088,5.02225926 14.7481754,5.0027037 14.7810175,4.968 L15.9428772,3.74155556 C15.9757895,3.70681481 15.994281,3.65974074 15.994281,3.61059259 C15.994281,3.57337037 15.9836491,3.537 15.9637895,3.50618519 Z" fill-opacity="0.3" fill-rule="nonzero"></path>
                                    <path d="M7.99715789,3.24885185 C5.81975439,3.24885185 3.77045614,4.1462963 2.22670175,5.77585185 C2.15821053,5.84818519 2.15821053,5.96544444 2.22673684,6.03774074 L3.38498246,7.2602963 C3.41789474,7.29503704 3.46249123,7.31455556 3.50901754,7.31455556 C3.55554386,7.31455556 3.60017544,7.29503704 3.63305263,7.2602963 C4.80066667,6.02781481 6.35052632,5.349 7.99715789,5.349 C9.64385965,5.349 11.1937193,6.02781481 12.3612281,7.2602963 C12.3941404,7.29503704 12.4387719,7.31455556 12.4852982,7.31455556 C12.5318246,7.31455556 12.5764561,7.29503704 12.6093333,7.2602963 L13.767614,6.03774074 C13.8005263,6.003 13.8190175,5.95592593 13.8190175,5.90677778 C13.8190175,5.85762963 13.8005965,5.81055556 13.767614,5.77581481 C12.2238596,4.14633333 10.1745614,3.24885185 7.99715789,3.24885185 Z" fill-rule="nonzero"></path>
                                    <path d="M7.99715789,6.4922963 C6.63922807,6.4922963 5.36115789,7.05192593 4.39842105,8.06818519 C4.36547368,8.10292593 4.34701754,8.15 4.34701754,8.19918519 C4.34701754,8.2482963 4.3654386,8.29540741 4.39842105,8.33011111 L5.55666667,9.5527037 C5.58957895,9.58744444 5.63417544,9.60696296 5.68070175,9.60696296 C5.72722807,9.60696296 5.77185965,9.58744444 5.80473684,9.5527037 C6.39136842,8.93348148 7.16996491,8.59248148 7.99715789,8.59248148 C8.82435088,8.59248148 9.60301754,8.93355556 10.189614,9.5527037 C10.2225263,9.58744444 10.2671228,9.60696296 10.313614,9.60696296 C10.3601053,9.60696296 10.4047719,9.58744444 10.4376491,9.5527037 L11.5958947,8.33011111 C11.664386,8.25777778 11.664386,8.14051852 11.5958947,8.06825926 C10.633193,7.05192593 9.35512281,6.4922963 7.99715789,6.4922963 Z" fill-rule="nonzero"></path>
                                    <path d="M7.99715789,9.929 C7.52273684,9.929 7.07684211,10.123963 6.74157895,10.477963 C6.67308772,10.5502963 6.67308772,10.6675185 6.74161404,10.7398148 L7.87312281,11.9342593 C7.90603509,11.969 7.95063158,11.9885185 7.99715789,11.9885185 C8.04368421,11.9885185 8.08835088,11.969 8.12119298,11.9342593 L9.25270175,10.7398148 C9.32119298,10.6674815 9.32119298,10.5502593 9.25270175,10.4779259 C8.91740351,10.123963 8.47150877,9.929 7.99715789,9.929 Z" fill-rule="nonzero"></path>
                                </g>
                            </g>
                            <g id="Icons/Status-Bar/Staking/ic_staking_yes_light" transform="translate(48.000000, 0.000000)" fill="#3A465D">
                                <g id="Shape" transform="translate(1.000000, 2.000000)">
                                    <path d="M13.643657,2.83243956 L7.24325566,0.0633406593 C7.08830421,-0.00421978022 6.91119741,-0.00421978022 6.75543042,0.0633406593 L0.355346278,2.83243956 C0.146433657,2.92268132 0.00847249191,3.12131868 0.000724919094,3.34334066 C-0.00675080906,3.56492308 0.115533981,3.77195604 0.317559871,3.87621978 L6.7175534,7.18756044 C6.8058123,7.23349451 6.90254369,7.25595604 6.99954693,7.25595604 C7.09704854,7.25595604 7.19364401,7.23349451 7.28203883,7.18756044 L13.6823495,3.87621978 C13.8841942,3.77195604 14.0066149,3.56492308 13.9992751,3.34334066 C13.9905307,3.12131868 13.8528867,2.92268132 13.643657,2.83243956 Z" fill-rule="nonzero"></path>
                                    <path d="M13.1177282,5.31010989 L6.99918447,8.4767033 L0.88163754,5.31010989 C0.588770227,5.15850549 0.22612945,5.26606593 0.0709061489,5.54967033 C-0.0854045307,5.83314286 0.0254627832,6.18487912 0.317514563,6.33608791 L6.71750809,9.64835165 C6.80576699,9.69397802 6.90249838,9.7167033 6.99950162,9.7167033 C7.09700324,9.7167033 7.19359871,9.69428571 7.28199353,9.64835165 L13.6823042,6.33608791 C13.9736764,6.18487912 14.0844078,5.83314286 13.9290032,5.54967033 C13.7726019,5.26602198 13.4096893,5.15846154 13.1177282,5.31010989 Z" fill-rule="nonzero"></path>
                                    <path d="M13.1177282,7.58136264 L6.99918447,10.7469011 L0.88163754,7.58136264 C0.588770227,7.42962637 0.22612945,7.53731868 0.0709061489,7.82052747 C-0.0854045307,8.104 0.0254627832,8.45608791 0.317514563,8.60707692 L6.71750809,11.9182857 C6.80576699,11.9642198 6.90249838,11.9869451 6.99950162,11.9869451 C7.09700324,11.9869451 7.19359871,11.9645275 7.28199353,11.9182857 L13.6823042,8.60707692 C13.9736764,8.45608791 14.0844078,8.10404396 13.9290032,7.82052747 C13.7726019,7.53731868 13.4101877,7.42958242 13.1177282,7.58136264 Z" fill-rule="nonzero"></path>
                                </g>
                            </g>
                            <g id="Icons/Status-Bar/Network/ic_syncing_uptodate" transform="translate(24.000000, 0.000000)" fill="#2AC940">
                                <g id="Shape" transform="translate(0.000000, 2.000000)">
                                    <path d="M12.9,4.69333333 C12.4466667,2.39333333 10.4266667,0.666666667 8,0.666666667 C6.07333333,0.666666667 4.4,1.76 3.56666667,3.36 C1.56,3.57333333 0,5.27333333 0,7.33333333 C0,9.54 1.79333333,11.3333333 4,11.3333333 L12.6666667,11.3333333 C14.5066667,11.3333333 16,9.84 16,8 C16,6.24 14.6333333,4.81333333 12.9,4.69333333 L12.9,4.69333333 Z M6.66666667,9.33333333 L4.33333333,7 L5.27333333,6.06 L6.66666667,7.44666667 L10.12,4 L11.06,4.94 L6.66666667,9.33333333 L6.66666667,9.33333333 Z"></path>
                                </g>
                            </g>
                            <g id="Icons/Status-Bar/Beacon/ic_beacon_online_light" fill="#3A465D">
                                <g id="Shape" transform="translate(1.000000, 2.000000)">
                                    <path d="M7,5.33333333 C6.26666667,5.33333333 5.66666667,5.93333333 5.66666667,6.66666667 C5.66666667,7.4 6.26666667,8 7,8 C7.73333333,8 8.33333333,7.4 8.33333333,6.66666667 C8.33333333,5.93333333 7.73333333,5.33333333 7,5.33333333 L7,5.33333333 Z" id="Path"></path>
                                    <path d="M11,6.66666667 C11,4.46 9.20666667,2.66666667 7,2.66666667 C4.79333333,2.66666667 3,4.46 3,6.66666667 C3,8.14666667 3.80666667,9.43333333 5,10.1266667 L5.66666667,8.96666667 C4.87333333,8.5 4.33333333,7.65333333 4.33333333,6.66666667 C4.33333333,5.19333333 5.52666667,4 7,4 C8.47333333,4 9.66666667,5.19333333 9.66666667,6.66666667 C9.66666667,7.65333333 9.12666667,8.5 8.33333333,8.96666667 L9,10.1266667 C10.1933333,9.43333333 11,8.14666667 11,6.66666667 L11,6.66666667 Z" id="Path"></path>
                                    <path d="M7,0 C3.32,0 0.333333333,2.98666667 0.333333333,6.66666667 C0.333333333,9.13333333 1.67333333,11.28 3.66,12.4333333 L4.32666667,11.28 C2.74,10.3533333 1.66666667,8.64 1.66666667,6.66666667 C1.66666667,3.72 4.05333333,1.33333333 7,1.33333333 C9.94666667,1.33333333 12.3333333,3.72 12.3333333,6.66666667 C12.3333333,8.64 11.26,10.3533333 9.66666667,11.28 L10.3333333,12.4333333 C12.3266667,11.28 13.6666667,9.13333333 13.6666667,6.66666667 C13.6666667,2.98666667 10.68,1.18423789e-15 7,1.18423789e-15 L7,0 Z" id="Path"></path>
                                </g>
                            </g>
                        </g>
                        <text id="Client-Message:-Stak" font-family=".AppleSystemUIFont" font-size="10" font-weight="normal" fill="#171B24" fill-opacity="0.7">
                            <tspan x="8" y="15">Client Message: Stake Weight 3982689</tspan>
                        </text>
                    </g>
                    <text id="Normal-Connection" font-family=".AppleSystemUIFont" font-size="13" font-weight="normal" fill="#3A465D">
                        <tspan x="0.5" y="13">Normal Connection</tspan>
                    </text>
                </g>
                <g id="Wallet-Locked" transform="translate(20.000000, 50.000000)">
                    <g id="Status-Bar/Light" transform="translate(0.000000, 20.000000)">
                        <g id="bg">
                            <use fill="url(#linearGradient-1)" fill-rule="evenodd" xlink:href="#path-10"></use>
                            <use fill="black" fill-opacity="1" filter="url(#filter-11)" xlink:href="#path-10"></use>
                        </g>
                        <g id="Status-Icons" stroke-width="1" fill-rule="evenodd" transform="translate(221.000000, 3.000000)">
                            <g id="Icons/Status-Bar/Lock/ic_locked_light" transform="translate(96.000000, 0.000000)" fill="#3A465D" fill-rule="nonzero">
                                <path d="M12.5035645,7.74050715 L11.8429466,7.74050715 L11.8429466,5.7170152 C11.8429466,4.70804874 11.4260099,3.78286502 10.7390365,3.10744119 C10.0537913,2.43281151 9.0764744,1.9976178 7.99978397,1.99999051 C6.92222942,1.9976178 5.94491251,2.43281151 5.26053143,3.10744119 C4.57312595,3.78286502 4.15618924,4.70804874 4.15618924,5.7170152 L4.15618924,7.74050715 L3.49470728,7.74050715 C3.22294232,7.74050715 3,7.94380933 3,8.19515752 L3,13.5441489 C3,13.7970854 3.22294232,13.9999905 3.49470728,13.9999905 L12.5039965,13.9999905 C12.7783539,13.9999905 13,13.7966883 13,13.5441489 L13,8.19515752 C13,7.94380933 12.7779218,7.74050715 12.5035645,7.74050715 Z M8,12.236674 C7.26666667,12.236674 6.66666667,11.636674 6.66666667,10.9033407 C6.66666667,10.1700073 7.26666667,9.57000732 8,9.57000732 C8.73333333,9.57000732 9.33333333,10.1700073 9.33333333,10.9033407 C9.33333333,11.636674 8.73333333,12.236674 8,12.236674 L8,12.236674 Z M5.98034133,5.7170152 C5.98034133,5.13530097 6.22186217,4.61870697 6.59386477,4.25339837 C6.96845971,3.88729563 7.45798229,3.67644904 7.99978397,3.67644904 C8.54072154,3.67644904 9.03024411,3.88729563 9.40397494,4.25339837 C9.77770577,4.61870697 10.0174984,5.13530097 10.0174984,5.7170152 L10.0174984,7.74050715 L5.98034133,7.74050715 L5.98034133,5.7170152 Z" id="Shape"></path>
                            </g>
                            <g id="Icons/Status-Bar/Connection/ic_connection_good_light" transform="translate(72.000000, 0.000000)" fill="#3A465D">
                                <g id="Shape" transform="translate(0.000000, 2.000000)">
                                    <path d="M15.9637895,3.50618519 C15.9576491,3.49666667 15.9506667,3.48774074 15.9429123,3.47955556 C13.8204912,1.23925926 10.9986316,0.00544444444 7.99715789,0.00544444444 C4.99585965,0.00544444444 2.17424561,1.239 0.0519298246,3.47907407 C0.0189473684,3.51362963 2.84217094e-14,3.56092593 2.84217094e-14,3.61062963 C2.84217094e-14,3.65974074 0.0184561404,3.70685185 0.0514035088,3.74159259 L1.21326316,4.96803704 C1.24617544,5.00277778 1.29077193,5.02225926 1.33729825,5.02225926 C1.38382456,5.02225926 1.42845614,5.00274074 1.46133333,4.96803704 C3.20996491,3.12214815 5.53108772,2.10562963 7.99715789,2.10562963 C10.463193,2.10562963 12.7843158,3.12218519 14.5329825,4.968 C14.5658947,5.00274074 14.6104912,5.02225926 14.6569825,5.02225926 C14.7035088,5.02225926 14.7481754,5.0027037 14.7810175,4.968 L15.9428772,3.74155556 C15.9757895,3.70681481 15.994281,3.65974074 15.994281,3.61059259 C15.994281,3.57337037 15.9836491,3.537 15.9637895,3.50618519 Z" fill-rule="nonzero"></path>
                                    <path d="M7.99715789,3.24885185 C5.81975439,3.24885185 3.77045614,4.1462963 2.22670175,5.77585185 C2.15821053,5.84818519 2.15821053,5.96544444 2.22673684,6.03774074 L3.38498246,7.2602963 C3.41789474,7.29503704 3.46249123,7.31455556 3.50901754,7.31455556 C3.55554386,7.31455556 3.60017544,7.29503704 3.63305263,7.2602963 C4.80066667,6.02781481 6.35052632,5.349 7.99715789,5.349 C9.64385965,5.349 11.1937193,6.02781481 12.3612281,7.2602963 C12.3941404,7.29503704 12.4387719,7.31455556 12.4852982,7.31455556 C12.5318246,7.31455556 12.5764561,7.29503704 12.6093333,7.2602963 L13.767614,6.03774074 C13.8005263,6.003 13.8190175,5.95592593 13.8190175,5.90677778 C13.8190175,5.85762963 13.8005965,5.81055556 13.767614,5.77581481 C12.2238596,4.14633333 10.1745614,3.24885185 7.99715789,3.24885185 Z" fill-rule="nonzero"></path>
                                    <path d="M7.99715789,6.4922963 C6.63922807,6.4922963 5.36115789,7.05192593 4.39842105,8.06818519 C4.36547368,8.10292593 4.34701754,8.15 4.34701754,8.19918519 C4.34701754,8.2482963 4.3654386,8.29540741 4.39842105,8.33011111 L5.55666667,9.5527037 C5.58957895,9.58744444 5.63417544,9.60696296 5.68070175,9.60696296 C5.72722807,9.60696296 5.77185965,9.58744444 5.80473684,9.5527037 C6.39136842,8.93348148 7.16996491,8.59248148 7.99715789,8.59248148 C8.82435088,8.59248148 9.60301754,8.93355556 10.189614,9.5527037 C10.2225263,9.58744444 10.2671228,9.60696296 10.313614,9.60696296 C10.3601053,9.60696296 10.4047719,9.58744444 10.4376491,9.5527037 L11.5958947,8.33011111 C11.664386,8.25777778 11.664386,8.14051852 11.5958947,8.06825926 C10.633193,7.05192593 9.35512281,6.4922963 7.99715789,6.4922963 Z" fill-rule="nonzero"></path>
                                    <path d="M7.99715789,9.929 C7.52273684,9.929 7.07684211,10.123963 6.74157895,10.477963 C6.67308772,10.5502963 6.67308772,10.6675185 6.74161404,10.7398148 L7.87312281,11.9342593 C7.90603509,11.969 7.95063158,11.9885185 7.99715789,11.9885185 C8.04368421,11.9885185 8.08835088,11.969 8.12119298,11.9342593 L9.25270175,10.7398148 C9.32119298,10.6674815 9.32119298,10.5502593 9.25270175,10.4779259 C8.91740351,10.123963 8.47150877,9.929 7.99715789,9.929 Z" fill-rule="nonzero"></path>
                                </g>
                            </g>
                            <g id="Icons/Status-Bar/Staking/ic_staking_yes_light" transform="translate(48.000000, 0.000000)" fill="#3A465D">
                                <g id="Shape" transform="translate(1.000000, 2.000000)">
                                    <path d="M13.643657,2.83243956 L7.24325566,0.0633406593 C7.08830421,-0.00421978022 6.91119741,-0.00421978022 6.75543042,0.0633406593 L0.355346278,2.83243956 C0.146433657,2.92268132 0.00847249191,3.12131868 0.000724919094,3.34334066 C-0.00675080906,3.56492308 0.115533981,3.77195604 0.317559871,3.87621978 L6.7175534,7.18756044 C6.8058123,7.23349451 6.90254369,7.25595604 6.99954693,7.25595604 C7.09704854,7.25595604 7.19364401,7.23349451 7.28203883,7.18756044 L13.6823495,3.87621978 C13.8841942,3.77195604 14.0066149,3.56492308 13.9992751,3.34334066 C13.9905307,3.12131868 13.8528867,2.92268132 13.643657,2.83243956 Z" fill-rule="nonzero"></path>
                                    <path d="M13.1177282,5.31010989 L6.99918447,8.4767033 L0.88163754,5.31010989 C0.588770227,5.15850549 0.22612945,5.26606593 0.0709061489,5.54967033 C-0.0854045307,5.83314286 0.0254627832,6.18487912 0.317514563,6.33608791 L6.71750809,9.64835165 C6.80576699,9.69397802 6.90249838,9.7167033 6.99950162,9.7167033 C7.09700324,9.7167033 7.19359871,9.69428571 7.28199353,9.64835165 L13.6823042,6.33608791 C13.9736764,6.18487912 14.0844078,5.83314286 13.9290032,5.54967033 C13.7726019,5.26602198 13.4096893,5.15846154 13.1177282,5.31010989 Z" fill-rule="nonzero"></path>
                                    <path d="M13.1177282,7.58136264 L6.99918447,10.7469011 L0.88163754,7.58136264 C0.588770227,7.42962637 0.22612945,7.53731868 0.0709061489,7.82052747 C-0.0854045307,8.104 0.0254627832,8.45608791 0.317514563,8.60707692 L6.71750809,11.9182857 C6.80576699,11.9642198 6.90249838,11.9869451 6.99950162,11.9869451 C7.09700324,11.9869451 7.19359871,11.9645275 7.28199353,11.9182857 L13.6823042,8.60707692 C13.9736764,8.45608791 14.0844078,8.10404396 13.9290032,7.82052747 C13.7726019,7.53731868 13.4101877,7.42958242 13.1177282,7.58136264 Z" fill-rule="nonzero"></path>
                                </g>
                            </g>
                            <g id="Icons/Status-Bar/Network/ic_syncing_uptodate" transform="translate(24.000000, 0.000000)" fill="#2AC940">
                                <g id="Shape" transform="translate(0.000000, 2.000000)">
                                    <path d="M12.9,4.69333333 C12.4466667,2.39333333 10.4266667,0.666666667 8,0.666666667 C6.07333333,0.666666667 4.4,1.76 3.56666667,3.36 C1.56,3.57333333 0,5.27333333 0,7.33333333 C0,9.54 1.79333333,11.3333333 4,11.3333333 L12.6666667,11.3333333 C14.5066667,11.3333333 16,9.84 16,8 C16,6.24 14.6333333,4.81333333 12.9,4.69333333 L12.9,4.69333333 Z M6.66666667,9.33333333 L4.33333333,7 L5.27333333,6.06 L6.66666667,7.44666667 L10.12,4 L11.06,4.94 L6.66666667,9.33333333 L6.66666667,9.33333333 Z"></path>
                                </g>
                            </g>
                            <g id="Icons/Status-Bar/Beacon/ic_beacon_online_light" fill="#3A465D">
                                <g id="Shape" transform="translate(1.000000, 2.000000)">
                                    <path d="M7,5.33333333 C6.26666667,5.33333333 5.66666667,5.93333333 5.66666667,6.66666667 C5.66666667,7.4 6.26666667,8 7,8 C7.73333333,8 8.33333333,7.4 8.33333333,6.66666667 C8.33333333,5.93333333 7.73333333,5.33333333 7,5.33333333 L7,5.33333333 Z" id="Path"></path>
                                    <path d="M11,6.66666667 C11,4.46 9.20666667,2.66666667 7,2.66666667 C4.79333333,2.66666667 3,4.46 3,6.66666667 C3,8.14666667 3.80666667,9.43333333 5,10.1266667 L5.66666667,8.96666667 C4.87333333,8.5 4.33333333,7.65333333 4.33333333,6.66666667 C4.33333333,5.19333333 5.52666667,4 7,4 C8.47333333,4 9.66666667,5.19333333 9.66666667,6.66666667 C9.66666667,7.65333333 9.12666667,8.5 8.33333333,8.96666667 L9,10.1266667 C10.1933333,9.43333333 11,8.14666667 11,6.66666667 L11,6.66666667 Z" id="Path"></path>
                                    <path d="M7,0 C3.32,0 0.333333333,2.98666667 0.333333333,6.66666667 C0.333333333,9.13333333 1.67333333,11.28 3.66,12.4333333 L4.32666667,11.28 C2.74,10.3533333 1.66666667,8.64 1.66666667,6.66666667 C1.66666667,3.72 4.05333333,1.33333333 7,1.33333333 C9.94666667,1.33333333 12.3333333,3.72 12.3333333,6.66666667 C12.3333333,8.64 11.26,10.3533333 9.66666667,11.28 L10.3333333,12.4333333 C12.3266667,11.28 13.6666667,9.13333333 13.6666667,6.66666667 C13.6666667,2.98666667 10.68,1.18423789e-15 7,1.18423789e-15 L7,0 Z" id="Path"></path>
                                </g>
                            </g>
                        </g>
                        <text id="Client-Message:-Stak" font-family=".AppleSystemUIFont" font-size="10" font-weight="normal" fill="#171B24" fill-opacity="0.7">
                            <tspan x="8" y="15">Client Message: Stake Weight 3982689</tspan>
                        </text>
                    </g>
                    <text id="Good-Connection" font-family=".AppleSystemUIFont" font-size="13" font-weight="normal" fill="#3A465D">
                        <tspan x="0.5" y="13">Good Connection</tspan>
                    </text>
                </g>
                <text id="Connection-Status" font-family=".AppleSystemUIFont" font-size="17" font-weight="normal" fill="#3A465D">
                    <tspan x="20.5" y="31">Connection Status</tspan>
                </text>
            </g>
        </g>
    </g>
</svg>