<?xml version="1.0" encoding="UTF-8"?>
<svg width="720px" height="192px" viewBox="0 0 720 192" version="1.1" xmlns="http://www.w3.org/2000/svg" xmlns:xlink="http://www.w3.org/1999/xlink">
    <!-- Generator: Sketch 61 (89581) - https://sketch.com -->
    <title>Dark</title>
    <desc>Created with Sketch.</desc>
    <defs>
        <path d="M34,30 L516,30 C518.209139,30 520,31.790861 520,34 L520,158 C520,160.209139 518.209139,162 516,162 L34,162 C31.790861,162 30,160.209139 30,158 L30,34 C30,31.790861 31.790861,30 34,30 Z" id="path-1"></path>
        <filter x="-0.1%" y="-0.4%" width="100.2%" height="101.5%" filterUnits="objectBoundingBox" id="filter-2">
            <feOffset dx="0" dy="1" in="SourceAlpha" result="shadowOffsetOuter1"></feOffset>
            <feComposite in="shadowOffsetOuter1" in2="SourceAlpha" operator="out" result="shadowOffsetOuter1"></feComposite>
            <feColorMatrix values="0 0 0 0 0   0 0 0 0 0   0 0 0 0 0  0 0 0 0.3 0" type="matrix" in="shadowOffsetOuter1"></feColorMatrix>
        </filter>
    </defs>
    <g id="Style-Guideline" stroke="none" stroke-width="1" fill="none" fill-rule="evenodd">
        <g transform="translate(-720.000000, -1335.000000)" id="Dark">
            <g transform="translate(720.000000, 1335.000000)">
                <polygon id="bg" fill="#1A2632" points="0 0 720 0 720 192 0 192"></polygon>
                <g id="bg">
                    <use fill="black" fill-opacity="1" filter="url(#filter-2)" xlink:href="#path-1"></use>
                    <use fill-opacity="0.7" fill="#171B24" fill-rule="evenodd" xlink:href="#path-1"></use>
                </g>
                <g id="Inputs/Dark/Active" transform="translate(40.000000, 40.000000)">
                    <path d="M0.5,3.99005301 L0.5,20.009947 C0.5,21.9386522 2.06388571,23.5 3.99507582,23.5 L196.004924,23.5 C197.934423,23.5 199.5,21.9367822 199.5,20.009947 L199.5,3.99005301 C199.5,2.06134782 197.936114,0.5 196.004924,0.5 L3.99507582,0.5 C2.06557705,0.5 0.5,2.06321775 0.5,3.99005301 Z" id="bg" stroke-opacity="0.7" stroke="#FFFFFF" stroke-width="1" fill="#17222C" fill-rule="evenodd"></path>
                    <text id="Text" font-family=".AppleSystemUIFont" font-size="12" font-weight="normal" fill="#FFFFFF">
                        <tspan x="10" y="17">Focused</tspan>
                    </text>
                </g>
                <g id="Inputs/Dark/Disabled" transform="translate(40.000000, 128.000000)">
                    <path d="M0.5,3.99005301 L0.5,20.009947 C0.5,21.9386522 2.06388571,23.5 3.99507582,23.5 L196.004924,23.5 C197.934423,23.5 199.5,21.9367822 199.5,20.009947 L199.5,3.99005301 C199.5,2.06134782 197.936114,0.5 196.004924,0.5 L3.99507582,0.5 C2.06557705,0.5 0.5,2.06321775 0.5,3.99005301 Z" id="bg" stroke-opacity="0.3" stroke="#3A465D" stroke-width="1" fill="#17222C" fill-rule="evenodd"></path>
                    <text id="Text" font-family=".AppleSystemUIFont" font-size="12" font-weight="normal" fill="#3A465D">
                        <tspan x="10" y="17">Disabled</tspan>
                    </text>
                </g>
                <g id="Inputs/Dark/Default" transform="translate(40.000000, 84.000000)">
                    <path d="M0.5,3.99005301 L0.5,20.009947 C0.5,21.9386522 2.06388571,23.5 3.99507582,23.5 L196.004924,23.5 C197.934423,23.5 199.5,21.9367822 199.5,20.009947 L199.5,3.99005301 C199.5,2.06134782 197.936114,0.5 196.004924,0.5 L3.99507582,0.5 C2.06557705,0.5 0.5,2.06321775 0.5,3.99005301 Z" id="bg" stroke="#3A465D" stroke-width="1" fill="#17222C" fill-rule="evenodd"></path>
                    <text id="Text" opacity="0.7" font-family=".AppleSystemUIFont" font-size="12" font-weight="normal" fill="#FFFFFF">
                        <tspan x="10" y="17">Default</tspan>
                    </text>
                </g>
            </g>
        </g>
    </g>
</svg>